<svg width="1280" height="560" viewBox="0 0 1280 560" fill="none" xmlns="http://www.w3.org/2000/svg" role="img" aria-labelledby="title desc">
  <title id="title">SomniBounty AI security bounty dashboard hero</title>
  <desc id="desc">A dark security operations dashboard showing agent verification, onchain incidents, and bounty escrow payout flow.</desc>
  <defs>
    <linearGradient id="bg" x1="0" y1="0" x2="1280" y2="560" gradientUnits="userSpaceOnUse">
      <stop stop-color="#07110E"/>
      <stop offset="0.45" stop-color="#0B1F27"/>
      <stop offset="1" stop-color="#151023"/>
    </linearGradient>
    <linearGradient id="panel" x1="84" y1="80" x2="1196" y2="494" gradientUnits="userSpaceOnUse">
      <stop stop-color="#10201D" stop-opacity="0.96"/>
      <stop offset="0.58" stop-color="#101A25" stop-opacity="0.96"/>
      <stop offset="1" stop-color="#18142A" stop-opacity="0.96"/>
    </linearGradient>
    <linearGradient id="green" x1="180" y1="100" x2="1050" y2="420" gradientUnits="userSpaceOnUse">
      <stop stop-color="#67F7B1"/>
      <stop offset="1" stop-color="#36B7FF"/>
    </linearGradient>
    <linearGradient id="amber" x1="720" y1="170" x2="1080" y2="390" gradientUnits="userSpaceOnUse">
      <stop stop-color="#FFD166"/>
      <stop offset="1" stop-color="#FF7A59"/>
    </linearGradient>
    <filter id="soft" x="-20%" y="-20%" width="140%" height="140%" color-interpolation-filters="sRGB">
      <feGaussianBlur stdDeviation="18"/>
    </filter>
    <filter id="shadow" x="-10%" y="-10%" width="120%" height="130%" color-interpolation-filters="sRGB">
      <feDropShadow dx="0" dy="22" stdDeviation="24" flood-color="#000000" flood-opacity="0.38"/>
    </filter>
  </defs>

  <rect width="1280" height="560" fill="url(#bg)"/>
  <circle cx="200" cy="120" r="190" fill="#1AF0A0" opacity="0.13" filter="url(#soft)"/>
  <circle cx="1040" cy="430" r="220" fill="#5E5BFF" opacity="0.18" filter="url(#soft)"/>
  <circle cx="980" cy="110" r="170" fill="#FFB020" opacity="0.09" filter="url(#soft)"/>

  <g opacity="0.18">
    <path d="M0 472H1280" stroke="#DDFCF2"/>
    <path d="M0 392H1280" stroke="#DDFCF2"/>
    <path d="M0 312H1280" stroke="#DDFCF2"/>
    <path d="M0 232H1280" stroke="#DDFCF2"/>
    <path d="M0 152H1280" stroke="#DDFCF2"/>
    <path d="M150 0V560" stroke="#DDFCF2"/>
    <path d="M310 0V560" stroke="#DDFCF2"/>
    <path d="M470 0V560" stroke="#DDFCF2"/>
    <path d="M630 0V560" stroke="#DDFCF2"/>
    <path d="M790 0V560" stroke="#DDFCF2"/>
    <path d="M950 0V560" stroke="#DDFCF2"/>
    <path d="M1110 0V560" stroke="#DDFCF2"/>
  </g>

  <rect x="76" y="64" width="1128" height="432" rx="28" fill="url(#panel)" stroke="#FFFFFF" stroke-opacity="0.12" filter="url(#shadow)"/>
  <rect x="76" y="64" width="1128" height="54" rx="28" fill="#FFFFFF" fill-opacity="0.05"/>
  <circle cx="116" cy="91" r="7" fill="#FF6B6B"/>
  <circle cx="140" cy="91" r="7" fill="#FFD166"/>
  <circle cx="164" cy="91" r="7" fill="#67F7B1"/>
  <text x="204" y="98" fill="#CDEBE3" font-family="Inter, Segoe UI, Arial, sans-serif" font-size="17" font-weight="600">SomniBounty AI // ProofGuard Console</text>
  <text x="1028" y="98" fill="#91EFD1" font-family="Inter, Segoe UI, Arial, sans-serif" font-size="15" font-weight="600">Somnia Testnet</text>

  <g transform="translate(116 150)">
    <text x="0" y="0" fill="#F3FFF9" font-family="Inter, Segoe UI, Arial, sans-serif" font-size="44" font-weight="800">Agents verify fixes.</text>
    <text x="0" y="54" fill="#F3FFF9" font-family="Inter, Segoe UI, Arial, sans-serif" font-size="44" font-weight="800">Escrow pays proof.</text>
    <text x="0" y="96" fill="#A8C9C1" font-family="Inter, Segoe UI, Arial, sans-serif" font-size="19">Observe, investigate, reason, act, verify, and pay onchain.</text>

    <g transform="translate(0 140)">
      <rect x="0" y="0" width="380" height="154" rx="18" fill="#08110F" fill-opacity="0.74" stroke="#FFFFFF" stroke-opacity="0.10"/>
      <text x="22" y="35" fill="#67F7B1" font-family="JetBrains Mono, Consolas, monospace" font-size="15" font-weight="700">INC-007</text>
      <text x="22" y="66" fill="#F6FFFB" font-family="Inter, Segoe UI, Arial, sans-serif" font-size="20" font-weight="700">Critical Reentrancy</text>
      <text x="22" y="96" fill="#A8C9C1" font-family="Inter, Segoe UI, Arial, sans-serif" font-size="15">Evidence hash anchored onchain</text>
      <rect x="22" y="118" width="104" height="23" rx="11.5" fill="#1AF0A0" fill-opacity="0.14" stroke="#67F7B1" stroke-opacity="0.38"/>
      <text x="39" y="135" fill="#91EFD1" font-family="Inter, Segoe UI, Arial, sans-serif" font-size="12" font-weight="700">OPEN</text>
      <rect x="140" y="118" width="118" height="23" rx="11.5" fill="#FFD166" fill-opacity="0.13" stroke="#FFD166" stroke-opacity="0.35"/>
      <text x="157" y="135" fill="#FFD166" font-family="Inter, Segoe UI, Arial, sans-serif" font-size="12" font-weight="700">4.2 STT</text>
    </g>
  </g>

  <g transform="translate(548 158)">
    <path d="M42 64C96 10 184 10 238 64C292 118 292 206 238 260C184 314 96 314 42 260C-12 206 -12 118 42 64Z" fill="#071512" fill-opacity="0.8" stroke="url(#green)" stroke-opacity="0.75" stroke-width="2"/>
    <path d="M87 162H193" stroke="url(#green)" stroke-width="10" stroke-linecap="round"/>
    <path d="M140 109V215" stroke="url(#green)" stroke-width="10" stroke-linecap="round"/>
    <circle cx="140" cy="162" r="72" stroke="#67F7B1" stroke-opacity="0.2" stroke-width="22"/>
    <circle cx="140" cy="162" r="30" fill="#67F7B1" fill-opacity="0.16" stroke="#91EFD1" stroke-width="2"/>
    <text x="73" y="312" fill="#F3FFF9" font-family="Inter, Segoe UI, Arial, sans-serif" font-size="19" font-weight="800">Agent verdict</text>
    <text x="81" y="338" fill="#91EFD1" font-family="JetBrains Mono, Consolas, monospace" font-size="17" font-weight="800">VALID</text>
  </g>

  <g transform="translate(830 156)">
    <rect x="0" y="0" width="306" height="296" rx="22" fill="#08110F" fill-opacity="0.72" stroke="#FFFFFF" stroke-opacity="0.10"/>
    <text x="26" y="42" fill="#F3FFF9" font-family="Inter, Segoe UI, Arial, sans-serif" font-size="22" font-weight="800">Bounty escrow</text>
    <text x="26" y="70" fill="#A8C9C1" font-family="Inter, Segoe UI, Arial, sans-serif" font-size="15">Native STT payout gate</text>

    <rect x="26" y="104" width="254" height="68" rx="16" fill="#FFFFFF" fill-opacity="0.05" stroke="#FFFFFF" stroke-opacity="0.08"/>
    <text x="46" y="132" fill="#A8C9C1" font-family="Inter, Segoe UI, Arial, sans-serif" font-size="13">Escrowed bounty</text>
    <text x="46" y="158" fill="#F6FFFB" font-family="JetBrains Mono, Consolas, monospace" font-size="24" font-weight="800">4.2 STT</text>

    <rect x="26" y="196" width="254" height="56" rx="16" fill="url(#amber)" fill-opacity="0.18" stroke="#FFD166" stroke-opacity="0.38"/>
    <text x="46" y="230" fill="#FFE6A3" font-family="Inter, Segoe UI, Arial, sans-serif" font-size="16" font-weight="800">Release payout automatically</text>
  </g>

  <g opacity="0.9">
    <path d="M455 348C508 348 513 271 557 271" stroke="url(#green)" stroke-width="3" stroke-linecap="round"/>
    <path d="M772 271C808 271 802 305 830 305" stroke="url(#green)" stroke-width="3" stroke-linecap="round"/>
    <circle cx="458" cy="348" r="5" fill="#67F7B1"/>
    <circle cx="557" cy="271" r="5" fill="#67F7B1"/>
    <circle cx="772" cy="271" r="5" fill="#67F7B1"/>
    <circle cx="830" cy="305" r="5" fill="#67F7B1"/>
  </g>

  <g transform="translate(116 446)">
    <rect x="0" y="0" width="1048" height="1" fill="#FFFFFF" opacity="0.11"/>
    <text x="0" y="31" fill="#7FA69D" font-family="JetBrains Mono, Consolas, monospace" font-size="14">ProjectRegistered</text>
    <text x="205" y="31" fill="#7FA69D" font-family="JetBrains Mono, Consolas, monospace" font-size="14">IncidentOpened</text>
    <text x="405" y="31" fill="#7FA69D" font-family="JetBrains Mono, Consolas, monospace" font-size="14">FixSubmitted</text>
    <text x="585" y="31" fill="#7FA69D" font-family="JetBrains Mono, Consolas, monospace" font-size="14">VerificationRequested</text>
    <text x="840" y="31" fill="#91EFD1" font-family="JetBrains Mono, Consolas, monospace" font-size="14" font-weight="800">BountyPaid</text>
  </g>
</svg>
